<svg xmlns="http://www.w3.org/2000/svg" width="37.043" height="37.029" viewBox="0 0 37.043 37.029">
  <path id="logo-origami" d="M12.85,13.38V.62c0-.69.37-.82.82-.31L18,5.21a1.65,1.65,0,0,1,.11,1.94L13.57,13.6C13.17,14.16,12.85,14.06,12.85,13.38Zm23.59-.26-8.67,5.33a.74.74,0,0,1-1.21-.63L25.32.73c-.05-.72-.41-.81-.8-.2L14.05,16.94a1.31,1.31,0,0,1-1.81.39L6.36,13.49a1.59,1.59,0,0,0-2,.25L.29,18.16c-.49.53-.35.72.31.43l4.47-2a1.72,1.72,0,0,1,2,.52l6.67,9.06a1.58,1.58,0,0,0,1.95.44l3-1.61A2.8,2.8,0,0,1,21,25l3.1,1.63a1.68,1.68,0,0,0,2-.4L36.7,13.45c.48-.57.36-.71-.26-.33ZM5.36,34.32A2.71,2.71,0,0,1,2.69,37a2.68,2.68,0,1,1,2.67-2.68ZM3.93,33.07a1.71,1.71,0,0,0-1.25-.54,1.68,1.68,0,0,0-1.27.56,1.84,1.84,0,0,0-.5,1.22,1.81,1.81,0,0,0,1.77,1.8A1.68,1.68,0,0,0,4,35.55a1.79,1.79,0,0,0,.49-1.23,1.82,1.82,0,0,0-.56-1.25Zm33-1.28a.39.39,0,0,0-.27-.11h-.14a.35.35,0,0,0-.26.11.4.4,0,0,0-.12.27v4.53a.44.44,0,0,0,.11.27.39.39,0,0,0,.27.11h.14a.38.38,0,0,0,.38-.38V32.06a.39.39,0,0,0-.15-.27ZM21.18,34.4a.35.35,0,0,0-.1-.24.36.36,0,0,0-.26-.11H18.88a.38.38,0,0,0-.38.38v.13a.4.4,0,0,0,.11.27.39.39,0,0,0,.27.11h1.3a1.72,1.72,0,0,1-.37.61,1.57,1.57,0,0,1-1.22.56,1.78,1.78,0,0,1-1.7-1.8,1.87,1.87,0,0,1,.48-1.22,1.6,1.6,0,0,1,1.23-.56,1.66,1.66,0,0,1,1.21.54,1.831,1.831,0,0,1,.13.16.38.38,0,0,0,.44.18h.13a.4.4,0,0,0,.24-.22.37.37,0,0,0,0-.34,2.55,2.55,0,0,0-2.13-1.18,2.68,2.68,0,1,0,2.6,2.8Zm-9.83,2a.41.41,0,0,1,0,.4A.4.4,0,0,1,11,37h-.16a.37.37,0,0,1-.32-.17L9.29,35.19H7.77v1.4a.39.39,0,0,1-.11.27.4.4,0,0,1-.27.11H7.25A.4.4,0,0,1,7,36.86a.39.39,0,0,1-.11-.27V32.05a.38.38,0,0,1,.38-.38H9.7a1.77,1.77,0,0,1,.62,3.41ZM7.77,34.3h1.9a.83.83,0,0,0,.63-.3,1,1,0,0,0,.22-.61.94.94,0,0,0-.24-.61,1,1,0,0,0-.65-.26H7.77Zm19.6,2.49a.38.38,0,0,1-.32.18H26.9a.39.39,0,0,1-.35-.22L26,35.67H23.58l-.52,1.08a.4.4,0,0,1-.35.22h-.15a.38.38,0,0,1-.32-.18.36.36,0,0,1,0-.36l2.18-4.54a.4.4,0,0,1,.35-.22h.12a.4.4,0,0,1,.35.22l2.17,4.54a.36.36,0,0,1-.04.36Zm-2.56-3.65L24,34.79h1.6Zm9.39-1.36a.36.36,0,0,0-.26-.11h-.11a.38.38,0,0,0-.32.18l-1.88,3-1.88-3a.38.38,0,0,0-.32-.18h-.11a.35.35,0,0,0-.26.11.36.36,0,0,0-.12.27v4.54a.38.38,0,0,0,.38.38h.14a.38.38,0,0,0,.38-.38V33.65l1.41,2.25a.37.37,0,0,0,.32.17h.11A.36.36,0,0,0,32,35.9l1.42-2.25v2.94a.39.39,0,0,0,.11.27.4.4,0,0,0,.27.11h.14a.393.393,0,0,0,.38-.38V32.05a.4.4,0,0,0-.12-.27Zm-20.05,0a.4.4,0,0,0-.27-.11h-.14a.38.38,0,0,0-.38.38v4.53a.4.4,0,0,0,.11.27.39.39,0,0,0,.27.11h.14a.38.38,0,0,0,.38-.38V32.06a.39.39,0,0,0-.11-.27Z" transform="translate(0.003 0)" fill="#ff5b19"/>
</svg>
